HIERARCHY
ROOT Hips
{
  OFFSET 0 0 0
  CHANNELS 6 Xposition Yposition Zposition Zrotation Yrotation Xrotation
  JOINT LeftThigh
  {
    OFFSET 8.409438 0 -5.917753
    CHANNELS 3 Zrotation Yrotation Xrotation
    JOINT LeftLeg
    {
      OFFSET 0 0 -42.358652
      CHANNELS 3 Zrotation Yrotation Xrotation
      JOINT LeftFoot
      {
        OFFSET 0 0 -39.357303
        CHANNELS 3 Zrotation Yrotation Xrotation
      }
    }
  }
  JOINT RightThigh
  {
    OFFSET -8.409438 0 -5.917753
    CHANNELS 3 Zrotation Yrotation Xrotation
    JOINT RightLeg
    {
      OFFSET 0 0 -42.358652
      CHANNELS 3 Zrotation Yrotation Xrotation
      JOINT RightFoot
      {
        OFFSET 0 0 -39.357303
        CHANNELS 3 Zrotation Yrotation Xrotation
      }
    }
  }
  JOINT SpineLow
  {
    OFFSET 0 0 4.719101
    CHANNELS 3 Zrotation Yrotation Xrotation
    JOINT SpineMid
    {
      OFFSET 0 0 12.899191
      CHANNELS 3 Zrotation Yrotation Xrotation
      JOINT Chest
      {
        OFFSET 0 0 12.899191
        CHANNELS 3 Zrotation Yrotation Xrotation
        JOINT LeftShoulder
        {
          OFFSET 7.550562 1.41573 9.438202
          CHANNELS 3 Zrotation Yrotation Xrotation
          JOINT LeftArm
          {
            OFFSET 9.155056 0 4.247191
            CHANNELS 3 Zrotation Yrotation Xrotation
            JOINT LeftForearm
            {
              OFFSET 0 0 25.771955
              CHANNELS 3 Zrotation Yrotation Xrotation
              JOINT LeftHand
              {
                OFFSET 0 0 25.197169
                CHANNELS 3 Zrotation Yrotation Xrotation
              }
            }
          }
        }
        JOINT RightShoulder
        {
          OFFSET -7.550562 1.41573 9.438202
          CHANNELS 3 Zrotation Yrotation Xrotation
          JOINT RightArm
          {
            OFFSET -9.155056 0 4.247191
            CHANNELS 3 Zrotation Yrotation Xrotation
            JOINT RightForearm
            {
              OFFSET 0 0 -25.771955
              CHANNELS 3 Zrotation Yrotation Xrotation
              JOINT RightHand
              {
                OFFSET 0 0 -25.197169
                CHANNELS 3 Zrotation Yrotation Xrotation
              }
            }
          }
        }
        JOINT Neck
        {
          OFFSET 0 0 15.101124
          CHANNELS 3 Zrotation Yrotation Xrotation
          JOINT Head
          {
            OFFSET 0 0 11.325843
            CHANNELS 3 Zrotation Yrotation Xrotation
            End Site
            {
              OFFSET 0 0 14.157303
            }
          }
        }
      }
    }
  }
}
MOTION
Frames: 10
Frame Time: 0.0
0.0  93.25843  0.0  -3.833354  -22.879888  -92.829159  40.58336  -26.967252  -24.684133  -0.908018  10.570671  22.512415  2.407534  1.876259  2.007742  2.235288  15.157415  8.797222  -28.72433  -3.666303  10.986395  7.624266  4.241449  -3.771269  2.046695  -1.451892  -0.457849  5.627833  -3.926384  -1.374877  5.627833  -3.926384  -1.374877  -26.271055  21.601923  -2.512464  -156.820738  62.80808  -96.913389  -31.285001  -5.020423  76.75107  44.242707  -13.217438  10.766282  -3.416689  -10.863867  20.509308  106.408331  35.949016  32.098298  -10.245198  -18.340048  -111.615452  83.363815  28.22701  24.513197  11.529581  2.094863  12.760333  8.60695  1.81364  9.533712  
0.0  93.25843  0.0  -3.783987  -22.091082  -92.68838  41.437861  -26.249431  -25.498792  -1.086291  10.654547  23.169964  2.503543  1.955466  2.027639  1.737833  15.432706  9.130181  -29.116479  -3.65752  10.388231  7.489516  3.997325  -3.645943  2.096102  -1.394428  -0.455256  5.76129  -3.768591  -1.365591  5.76129  -3.768591  -1.365591  -26.487539  21.351114  -2.701524  -158.102961  63.012963  -97.853285  -31.284945  -5.056851  76.434623  44.262136  -13.114684  10.746982  -3.241924  -11.285757  20.150198  105.813767  37.306045  31.645309  -10.969519  -18.238268  -111.086486  83.516197  27.510325  24.115294  11.311988  2.016235  12.495001  8.446095  1.745082  9.336781  
0.0  93.25843  0.0  -3.523565  -22.702089  -92.969879  43.192445  -25.788754  -25.888092  -0.821719  10.74255  24.011474  2.63449  2.025603  2.074242  2.539267  15.811789  9.778171  -29.45384  -3.511597  9.777918  7.307734  3.601384  -3.537897  2.36537  -1.328536  -0.382575  6.492248  -3.589883  -1.175604  6.492247  -3.589883  -1.175604  -26.623018  21.053855  -3.02266  -159.892045  63.248171  -99.31294  -31.32918  -4.982457  76.072362  44.268677  -12.986621  10.671017  -3.120016  -11.764454  19.607588  105.511873  38.552099  31.265188  -11.796932  -18.189554  -110.443821  83.617769  26.762688  23.441754  11.067537  1.868187  12.232908  8.266467  1.62413  9.143615  
0.0  93.25843  0.0  -3.460058  -21.97403  -92.815188  43.701438  -25.244189  -26.437453  -0.457411  10.924234  24.670755  2.916184  2.063392  2.135367  1.917186  16.143104  10.04948  -29.984662  -3.437905  9.227692  7.309879  3.38593  -3.460039  2.460417  -1.257906  -0.390206  6.750895  -3.394452  -1.194262  6.750895  -3.394452  -1.194262  -26.853813  20.657945  -3.445559  -162.287645  63.414453  -101.278815  -31.388692  -4.876097  75.526294  44.327887  -12.820689  10.49936  -2.828673  -12.36733  19.164835  105.10328  40.040656  30.91421  -12.686598  -18.226753  -109.643852  83.610262  26.063861  22.573957  10.698524  1.701368  11.969733  7.993631  1.486834  8.950128  
0.0  93.25843  0.0  -3.131633  -22.63384  -93.102564  45.181479  -24.920462  -26.467165  0.400306  11.075877  25.437856  3.16598  2.064763  2.170348  2.658231  16.617868  10.710561  -30.904988  -3.465349  8.607847  7.844517  3.337614  -3.25986  2.764167  -1.184251  -0.347501  7.577866  -3.192373  -1.084528  7.577867  -3.192373  -1.084528  -26.504176  20.374863  -3.733708  -165.585988  63.480505  -103.72526  -31.462162  -4.664054  74.849359  44.482632  -12.59764  10.222056  -2.704127  -12.98112  18.516624  105.101606  41.247099  30.627305  -13.679769  -18.313257  -108.600978  83.563436  25.459564  21.650221  10.410037  1.494074  11.839302  7.781618  1.32332  8.85659  
0.0  93.25843  0.0  -3.040937  -21.929835  -92.966694  45.362753  -24.525865  -26.709719  1.563309  11.203997  26.184698  3.377001  2.025256  2.217174  2.1283  17.006784  11.149107  -31.287956  -3.541689  8.075844  7.663373  3.18633  -3.161614  2.870652  -1.127532  -0.399681  7.870133  -3.029473  -1.225291  7.870133  -3.029473  -1.225291  -26.295243  20.034098  -3.918552  -169.227361  63.254055  -106.641074  -31.581281  -4.476965  74.029683  44.782777  -12.366864  9.949498  -2.195679  -13.586525  18.104003  104.859308  42.719726  30.324797  -14.921531  -18.247324  -107.247443  83.659046  24.848894  20.977434  10.001534  1.3376  11.785956  7.478325  1.19704  8.819996  
0.0  93.25843  0.0  -2.703612  -22.362913  -93.218181  46.418846  -24.249284  -26.507341  2.897979  11.308263  26.963648  3.536565  2.006157  2.23223  2.820451  17.5926  11.938805  -31.602408  -3.702046  7.582035  7.086858  2.89619  -3.075898  3.142809  -1.05372  -0.400079  8.612566  -2.822588  -1.228982  8.612566  -2.822588  -1.228982  -25.824356  19.514508  -4.026242  -171.416849  62.324355  -110.643115  -31.129981  -4.152683  73.37308  43.406383  -12.775353  11.207963  -2.196404  -14.258278  17.250677  105.446793  43.597846  30.175429  -16.570805  -17.760065  -105.498931  83.932411  23.974275  20.735365  9.735878  1.112875  11.824853  7.283392  1.02385  8.853314  
0.0  93.25843  0.0  -2.544281  -21.684878  -93.108214  46.411981  -23.815628  -26.529705  4.369852  11.239296  27.767091  3.550299  2.010893  2.287867  2.301021  18.149737  12.289755  -31.626433  -3.876316  7.302018  6.840324  2.909487  -2.923965  3.259403  -0.97809  -0.467936  8.932081  -2.604793  -1.408768  8.932081  -2.604793  -1.408768  -25.340551  18.84384  -4.024535  -175.152208  61.028733  -113.90484  -30.357714  -4.205168  72.436448  44.097952  -12.746453  11.326173  -1.505168  -14.837244  16.871779  105.482759  45.175135  29.923743  -18.702248  -16.600221  -103.313968  84.252471  22.778673  20.84225  9.330759  0.929558  11.856703  6.983009  0.878882  8.880612  
0.0  93.25843  0.0  -2.0945  -21.849268  -93.333876  47.067358  -23.305461  -26.105521  5.80434  11.024746  28.546377  3.545164  1.951459  2.356675  2.817498  18.919362  12.784768  -31.668383  -3.998572  7.250436  6.468941  3.046378  -2.765466  3.521052  -0.882965  -0.502001  9.646018  -2.334485  -1.497808  9.646019  -2.334485  -1.497808  -24.834871  18.162186  -3.937751  -176.477323  59.088798  -117.590064  -28.198734  -2.790687  73.130758  44.969129  -12.896949  11.568622  -1.619447  -15.399473  16.095992  106.48859  46.048978  29.845461  -21.272774  -14.644009  -100.707313  84.617684  21.306318  21.279119  8.907655  0.71741  11.991983  6.669631  0.713404  8.985692  
0.0  93.25843  0.0  -1.905195  -21.128882  -93.29315  46.867358  -22.618837  -25.760127  7.06288  10.645124  29.13407  3.630614  1.806967  2.388342  2.505659  19.489594  13.028492  -31.779034  -4.004119  7.468922  6.062503  3.304242  -2.689907  3.651245  -0.816094  -0.582487  10.002543  -2.136889  -1.711599  10.002542  -2.136889  -1.711599  -24.337855  17.490926  -3.902651  -179.832026  57.089575  -120.822996  -25.860611  -3.772976  72.117599  45.844774  -13.257299  11.831178  -0.970361  -15.835629  15.837963  106.967483  47.642853  29.830338  -24.073109  -11.932645  -97.762329  85.029769  19.458049  21.937507  8.397568  0.525316  12.133988  6.29065  0.561156  9.095257  
